<svg style="position: absolute; width: 0; height: 0; overflow: hidden;" aria-hidden="true" version="1.1" xmlns="http://www.w3.org/2000/svg" xmlns:xlink="http://www.w3.org/1999/xlink">
    <style>
        .default-palette, .palette0 {color: currentColor;
            --color0: currentColor;
        }
    </style>
    <defs>
        <symbol id="sun" viewBox="0 0 24 24" fill="none">
            <path fill="currentColor" d="M13 18a6 6 0 1 1 0-12 6 6 0 0 1 0 12M13 16a4 4 0 1 0 0-8 4 4 0 0 0 0 8M12 1h2v3h-2zM12 20h2v3h-2zM4.515 4.929 5.929 3.515 8.05 5.636 6.636 7.05zM17.95 18.364l1.414-1.414 2.121 2.121-1.414 1.414zM20.071 3.514l1.414 1.415-2.121 2.121-1.414-1.414zM6.636 16.95 8.05 18.364 5.929 20.485 4.515 19.071zM24 11v2h-3v-2zM5 11v2H2v-2z" />
        </symbol>
        <symbol id="moon" viewBox="0 0 24 24" fill="none">
            <path fill="currentColor" d="M12.2001 22.0005C16.7301 22.0005 20.6501 19.0905 21.9601 14.7605C22.0128 14.5868 22.0174 14.402 21.9733 14.226C21.9293 14.0499 21.8382 13.8891 21.7098 13.7607C21.5815 13.6323 21.4207 13.5413 21.2446 13.4972C21.0685 13.4531 20.8837 13.4577 20.7101 13.5105C19.9301 13.7405 19.1301 13.8605 18.3301 13.8605C13.8101 13.8605 10.1301 10.1805 10.1301 5.66049C10.1301 4.86049 10.2501 4.06049 10.4801 3.28049C10.5901 2.93049 10.4901 2.54049 10.2301 2.28049C9.97006 2.02049 9.59006 1.92049 9.23006 2.03049C7.13369 2.66353 5.29765 3.95633 3.99501 5.71662C2.69236 7.4769 1.99269 9.61064 2.00006 11.8005C2.00006 17.4205 6.57006 22.0005 12.2001 22.0005ZM8.18006 4.65049C8.15006 4.99049 8.13006 5.33049 8.13006 5.67049C8.13006 11.2905 12.7001 15.8705 18.3301 15.8705C18.6701 15.8705 19.0101 15.8505 19.3501 15.8205C17.9301 18.3805 15.2301 20.0005 12.2001 20.0005C7.68006 20.0005 4.00006 16.3205 4.00006 11.8005C3.99429 10.3439 4.37899 8.91241 5.11412 7.65494C5.84926 6.39747 6.90796 5.36 8.18006 4.65049Z" />
        </symbol>
        <symbol id="github" viewBox="0 0 24 24" stroke-width="2" stroke="currentColor" stroke-linecap="round" stroke-linejoin="round" fill="none">
            <path d="M15 21v-3c0-0.63 0.15-1.96-0.5-2.5 1.39-0.13 2.48-0.58 3.5-1.5s1.5-2.31 1.5-4.5c0-1.5-0.25-2.5-1-3.5 0.29-0.78 0.34-2 0-3-1.56 0-2.97 1.07-3.5 1.5C14.61 4.4 13.67 4 12 4S9.39 4.4 9 4.5C8.47 4.07 7.06 3 5.5 3c-0.34 1-0.29 2.22 0 3-0.75 1-1 2-1 3.5 0 2.19 0.48 3.58 1.5 4.5s2.11 1.37 3.5 1.5C8.85 16.04 9 17.37 9 18v3" />
            <path d="M9 19c-1.41 0-2.84-0.56-3.69-1.19C4.47 17.18 4.22 16.15 3 15.5" />
        </symbol>
        <symbol id="language" viewBox="0 0 24 24" fill="none">
            <path stroke="currentColor" stroke-width="2" stroke-linecap="round" stroke-linejoin="round" d="M12 23C18.075 23 23 18.075 23 12C23 5.925 18.075 1 12 1M12 23C5.925 23 1 18.075 1 12C1 5.925 5.925 1 12 1M12 23C15 23 16 18 16 12C16 6 15 1 12 1M12 23C9 23 8 18 8 12C8 6 9 1 12 1M2 16H22M2 8H22" />
        </symbol>
        <symbol id="cube" viewBox="0 0 24 24" fill="none">
            <path stroke-width="2" stroke="currentColor" stroke-linecap="round" stroke-linejoin="round" d="M12 22V12M12 12l8.73-5.04M12 12 3.27 6.96M21 16.008V7.99a1.98 1.98 0 0 0-1-1.717l-7-4.008a2.02 2.02 0 0 0-2 0L4 6.273c-0.619 0.355-1 1.01-1 1.718v8.018c0 0.709 0.381 1.363 1 1.717l7 4.008a2.02 2.02 0 0 0 2 0l7-4.008c0.619-0.355 1-1.01 1-1.718" />
        </symbol>
        <symbol id="code" viewBox="0 0 24 24" fill="none">
            <path fill="currentColor" d="M14.487 3.143a1 1 0 0 1 0.692 1.233l-4.43 15.788a1.002 1.002 0 0 1-1.581 0.516 1 1 0 0 1-0.345-1.056l4.43-15.788a1 1 0 0 1 1.234-0.693M7.207 7.05a1 1 0 0 1 0 1.414L3.674 12l3.535 3.535a1 1 0 1 1-1.414 1.415L1.55 12.707a1 1 0 0 1 0-1.414L5.794 7.05a1 1 0 0 1 1.414 0M16.795 8.464a1 1 0 1 1 1.414-1.414l4.243 4.243a1 1 0 0 1 0 1.414l-4.243 4.243a1 1 0 1 1-1.414-1.415L20.329 12z" />
        </symbol>
        <symbol id="arrow-up" viewBox="0 0 24 24" fill="none">
            <path fill="currentColor" d="M16.172 13H4v-2h12.172l-5.364-5.364 1.414-1.414L20 12l-7.778 7.778-1.414-1.414z" />
        </symbol>
        <symbol id="cancel" viewBox="0 -960 960 960" fill="currentcolor"><path d="m336-280 144-144 144 144 56-56-144-144 144-144-56-56-144 144-144-144-56 56 144 144-144 144zM480-80q-83 0-156-31.5T197-197t-85.5-127T80-480t31.5-156T197-763t127-85.5T480-880t156 31.5T763-763t85.5 127T880-480t-31.5 156T763-197t-127 85.5T480-80m0-80q134 0 227-93t93-227-93-227-227-93-227 93-93 227 93 227 227 93m0-320"/></symbol>
        <symbol id="ai" viewBox="0 0 24 24" fill="none">
            <path fill="currentColor" d="M9.106 5.448c0.598-1.75 3.016-1.803 3.725-0.159l0.06 0.16 0.807 2.36a4 4 0 0 0 2.276 2.411l0.217 0.081 2.36 0.806c1.75 0.598 1.803 3.016 0.16 3.725l-0.16 0.06-2.36 0.807a4 4 0 0 0-2.412 2.276l-0.08 0.216-0.807 2.361c-0.598 1.75-3.016 1.803-3.724 0.16l-0.062-0.16-0.806-2.36a4 4 0 0 0-2.276-2.412l-0.216-0.081-2.36-0.806c-1.75-0.598-1.804-3.016-0.16-3.724l0.16-0.062 2.36-0.806A4 4 0 0 0 8.22 8.025l0.081-0.216zM11 6.094l-0.806 2.36a6 6 0 0 1-3.49 3.649l-0.25 0.091L4.094 13l2.36 0.806a6 6 0 0 1 3.65 3.49l0.09 0.25 0.806 2.36 0.806-2.36a6 6 0 0 1 3.49-3.649l0.25-0.09 2.36-0.807-2.36-0.806a6 6 0 0 1-3.649-3.49l-0.09-0.25zM19 2a1 1 0 0 1 0.898 0.56l0.048 0.117 0.35 1.026 1.027 0.35a1 1 0 0 1 0.118 1.845l-0.118 0.048-1.026 0.35-0.35 1.027a1 1 0 0 1-1.845 0.117l-0.048-0.117-0.35-1.026-1.027-0.35a1 1 0 0 1-0.118-1.845l0.118-0.048 1.026-0.35 0.35-1.027A1 1 0 0 1 19 2" />
        </symbol>
        <symbol id="close" viewBox="0 0 40 40" fill="none">
            <path fill="currentColor" d="M10.6654 31.6663L8.33203 29.333L17.6654 19.9997L8.33203 10.6663L10.6654 8.33301L19.9987 17.6663L29.332 8.33301L31.6654 10.6663L22.332 19.9997L31.6654 29.333L29.332 31.6663L19.9987 22.333L10.6654 31.6663Z" />
        </symbol>
        <symbol id="login" viewBox="0 0 24 24" fill="none">
            <path fill="currentColor" d="M11 7L9.6 8.4L12.2 11H2V13H12.2L9.6 15.6L11 17L16 12L11 7ZM20 19H12V21H20C21.1 21 22 20.1 22 19V5C22 3.9 21.1 3 20 3H12V5H20V19Z" />
        </symbol>
        <symbol id="logout" viewBox="0 0 24 24" fill="none">
            <path fill="currentColor" d="M17 7L15.59 8.41L18.17 11H8V13H18.17L15.59 15.58L17 17L22 12M4 5H12V3H4C2.9 3 2 3.9 2 5V19C2 20.1 2.9 21 4 21H12V19H4V5Z" />
        </symbol>
        <symbol id="home" viewBox="0 0 24 24" fill="none">
            <path fill="currentColor" d="M5 21.9998H19C19.5304 21.9998 20.0391 21.7891 20.4142 21.414C20.7893 21.039 21 20.5302 21 19.9998V10.9998C21.0008 10.8682 20.9755 10.7377 20.9258 10.6159C20.876 10.4941 20.8027 10.3833 20.71 10.2898L12.71 2.28982C12.5226 2.10357 12.2692 1.99902 12.005 1.99902C11.7408 1.99902 11.4874 2.10357 11.3 2.28982L3.3 10.2898C3.20551 10.3824 3.13034 10.4929 3.07885 10.6148C3.02735 10.7366 3.00055 10.8675 3 10.9998V19.9998C3 20.5302 3.21071 21.039 3.58579 21.414C3.96086 21.7891 4.46957 21.9998 5 21.9998ZM10 19.9998V14.9998H14V19.9998H10ZM5 11.4098L12 4.40982L19 11.4098V19.9998H16V14.9998C16 14.4694 15.7893 13.9607 15.4142 13.5856C15.0391 13.2105 14.5304 12.9998 14 12.9998H10C9.46957 12.9998 8.96086 13.2105 8.58579 13.5856C8.21071 13.9607 8 14.4694 8 14.9998V19.9998H5V11.4098Z" />
        </symbol>
        <symbol id="info-outline" viewBox="0 0 24 24" fill="none"><path fill="currentColor" d="M11 7h2v2h-2zm0 4h2v6h-2zm1-9C6.48 2 2 6.48 2 12s4.48 10 10 10 10-4.48 10-10S17.52 2 12 2m0 18c-4.41 0-8-3.59-8-8s3.59-8 8-8 8 3.59 8 8-3.59 8-8 8"/></symbol>
        <symbol id="check-circle" viewBox="0 -960 960 960" fill="currentcolor"><path d="m424-296 282-282-56-56-226 226-114-114-56 56zm56 216q-83 0-156-31.5T197-197t-85.5-127T80-480t31.5-156T197-763t127-85.5T480-880t156 31.5T763-763t85.5 127T880-480t-31.5 156T763-197t-127 85.5T480-80m0-80q134 0 227-93t93-227-93-227-227-93-227 93-93 227 93 227 227 93m0-320"/></symbol>      
        <symbol id="rs" viewBox="0 0 64 64" fill="none">
            <g clip-path="url(#clip0_rs)">
                <circle cx="32" cy="32" r="32" fill="black"/>
                <path fill-rule="evenodd" clip-rule="evenodd" d="M13 21.5095V42.5L19.3067 42.4621V33.9474C20.0567 33.9474 20.7616 33.9775 21.4049 34.4267C21.8946 34.8785 22.2838 35.4335 22.546 36.054L25.9202 42.4621H33C31.5957 39.6675 30.4706 36.1327 28.0552 34.0104C27.5455 33.6749 26.9919 33.4158 26.411 33.241C27.1873 33.0779 27.9357 32.7973 28.6319 32.4084C30.3855 31.3375 31.3915 29.3808 31.3436 27.3374C31.3798 26.1328 31.0495 24.9466 30.3988 23.9441C28.9256 21.6883 25.9337 21.4213 23.4663 21.5095H13ZM21.9939 30.0116H19.3313V25.6975H22.1043C23.4807 25.5594 25.1814 26.1754 25.0859 27.8041C25.1499 29.5621 23.3647 29.9127 21.9939 30.0116Z" fill="#FFB749"/>
                <path d="M39.4768 35.089L33 35.4666C33.1262 37.3671 34.0021 39.16 35.4636 40.5088C36.9117 41.8323 39.5076 42.4941 43.2515 42.4941C46.3564 42.5823 49.9058 41.8146 51.821 39.1569C52.5929 38.0934 53.0033 36.8427 52.9998 35.564C53.0217 33.1848 51.4339 31.2297 49.3044 30.3147C47.2632 29.4766 45.1198 28.8674 42.9204 28.5C42.1107 28.41 41.3327 28.1563 40.6423 27.757C39.9039 27.2597 40.078 26.2272 40.735 25.7596C42.6084 24.5207 45.6299 25.5545 45.8608 27.9032L52.2845 27.5621C52.1703 25.768 51.1844 24.0545 49.6356 22.9583C47.6987 21.8887 45.4532 21.3874 43.1986 21.5212C41.3493 21.4527 39.5037 21.7218 37.7682 22.3128C35.6082 23.1125 33.829 25.064 33.8344 27.4525C33.7931 28.9377 34.5158 30.4088 35.755 31.3621C37.6454 32.6238 39.8325 33.4582 42.139 33.798C43.3833 33.9637 44.5727 34.3795 45.6224 35.0159C46.5878 35.7309 46.5807 37.167 45.5959 37.8903C44.5078 38.6532 42.9034 38.7416 41.6818 38.2468C40.3717 37.716 39.6048 36.4784 39.4768 35.089Z" fill="#FFB749"/>
            </g>

            <defs>
                <clipPath id="clip0_rs">
                <rect width="64" height="64" fill="white"/>
                </clipPath>
            </defs>
        </symbol>
    </defs>
</svg>