<svg style="position: absolute; width: 0; height: 0; overflow: hidden;" aria-hidden="true" version="1.1" xmlns="http://www.w3.org/2000/svg" xmlns:xlink="http://www.w3.org/1999/xlink">
    <style>
        .default-palette, .palette0 {color: currentColor;
            --color0: currentColor;
        }
    </style>
    <defs>
        <symbol id="sun" viewBox="0 0 24 24" fill="none">
            <path fill="currentColor" d="M13 18a6 6 0 1 1 0-12 6 6 0 0 1 0 12M13 16a4 4 0 1 0 0-8 4 4 0 0 0 0 8M12 1h2v3h-2zM12 20h2v3h-2zM4.515 4.929 5.929 3.515 8.05 5.636 6.636 7.05zM17.95 18.364l1.414-1.414 2.121 2.121-1.414 1.414zM20.071 3.514l1.414 1.415-2.121 2.121-1.414-1.414zM6.636 16.95 8.05 18.364 5.929 20.485 4.515 19.071zM24 11v2h-3v-2zM5 11v2H2v-2z" />
        </symbol>
        <symbol id="plus" viewBox="0 0 24 24" fill="none">
            <path fill="currentColor" d="M11 4h2v7h7v2h-7v7h-2v-7H4v-2h7z" />
        </symbol>
        <symbol id="minus" viewBox="0 0 24 24" fill="none">
            <path fill="currentColor" d="M3 11h18v2H3z" />
        </symbol>
        <symbol id="github" viewBox="0 0 24 24" stroke-width="2" stroke="currentColor" stroke-linecap="round" stroke-linejoin="round" fill="none">
            <path d="M15 21v-3c0-0.63 0.15-1.96-0.5-2.5 1.39-0.13 2.48-0.58 3.5-1.5s1.5-2.31 1.5-4.5c0-1.5-0.25-2.5-1-3.5 0.29-0.78 0.34-2 0-3-1.56 0-2.97 1.07-3.5 1.5C14.61 4.4 13.67 4 12 4S9.39 4.4 9 4.5C8.47 4.07 7.06 3 5.5 3c-0.34 1-0.29 2.22 0 3-0.75 1-1 2-1 3.5 0 2.19 0.48 3.58 1.5 4.5s2.11 1.37 3.5 1.5C8.85 16.04 9 17.37 9 18v3" />
            <path d="M9 19c-1.41 0-2.84-0.56-3.69-1.19C4.47 17.18 4.22 16.15 3 15.5" />
        </symbol>
        <symbol id="earth" viewBox="0 0 24 24" fill="currentColor">
            <path d="M12.516 22.219l-0.038-7e-3a0.04 0.04 0 0 0 0.037 6e-3M21.041 8.801a0.258 0.258 0 0 0-0.5-0.03 0.26 0.26 0 0 1-0.245 0.18h-0.725a0.26 0.26 0 0 1-0.133-0.036l-1.05-0.63a0.26 0.26 0 0 0-0.133-0.036h-1.678a0.26 0.26 0 0 0-0.143 0.043l-2.07 1.38a0.26 0.26 0 0 0-0.115 0.217v1.957a0.26 0.26 0 0 0 0.137 0.228l2.713 1.449a0.26 0.26 0 0 1 0.137 0.225l0.013 1.1a0.26 0.26 0 0 0 0.134 0.223l1.09 0.604a0.26 0.26 0 0 1 0.133 0.226v2.278a0.26 0.26 0 0 0 0.43 0.194c0.44-0.387 1.07-0.952 1.154-1.082a9.8 9.8 0 0 0 1.028-2.112c0.595-1.721 0.125-4.814-0.177-6.378M13.424 14.193l-2.875-2.157a0.2 0.2 0 0 0-0.112-0.037H9.074a0.18 0.18 0 0 1-0.126-0.052l-0.643-0.643a0.2 0.2 0 0 0-0.133-0.055H5.68a0.178 0.178 0 0 1-0.126-0.303l0.395-0.395a0.18 0.18 0 0 1 0.126-0.052H7.59a0.375 0.375 0 0 0 0.36-0.274l0.324-1.148a0.2 0.2 0 0 1 0.094-0.116L9.656 8.3a0.18 0.18 0 0 0 0.096-0.158V7.557q0-0.056 0.032-0.102l0.684-0.985q0.032-0.046 0.084-0.065l0.958-0.36a0.18 0.18 0 0 0 0.115-0.166V5.345a0.18 0.18 0 0 0-0.08-0.149l-0.96-0.638a0.18 0.18 0 0 0-0.179-0.01L9.1 5.2a0.18 0.18 0 0 1-0.187-0.02l-0.62-0.489a0.178 0.178 0 0 1 5e-3-0.281l0.503-0.371a0.177 0.177 0 0 0-4e-3-0.289L8.013 3.203a0.18 0.18 0 0 0-0.188-0.01C7.542 3.348 6.71 3.807 6.415 4.014a9.8 9.8 0 0 0-3.196 3.75c-0.085 0.176-0.19 0.356-0.2 0.55-0.011 0.193-0.163 0.625-0.226 0.8a0.18 0.18 0 0 0 0.011 0.145l1.673 3.075a0.2 0.2 0 0 0 0.065 0.067l1.76 1.057a0.18 0.18 0 0 1 0.085 0.127l0.352 2.557a0.18 0.18 0 0 0 0.076 0.123l1.373 0.944c0.04 0.027 0.068 0.069 0.077 0.116l0.729 3.46q6e-3 0.03 0.023 0.056c0.068 0.111 0.341 0.516 0.67 0.576-0.03 8e-3-0.057 0.028-0.088 0.036q0.12 0.021 0.234 0.055 0.141 0.037 0.282 0.067c0.146 0.029 0.16 0.052 0.231-0.079 0.094-0.174 0.201-0.234 0.281-0.256a0.18 0.18 0 0 0 0.136-0.136l0.472-2.188a0.2 0.2 0 0 1 0.075-0.113l2.11-1.496a0.19 0.19 0 0 0 0.079-0.153v-2.81a0.19 0.19 0 0 0-0.073-0.15" />
            <path d="M12.283 2.25c0 0-0.171 0.01-0.206 0.01A9.7 9.7 0 0 0 8.637 3c0.114 0.079-0.082 0.15-0.082 0.15l0.306 0.6h1.64l1.126 0.563 0.984-0.563zM16.606 5.628l0.756-0.656a0.188 0.188 0 0 0-0.044-0.312l-0.882-0.41a0.19 0.19 0 0 0-0.249 0.09L15.824 5.1a0.187 0.187 0 0 0 0.07 0.24l0.49 0.306a0.19 0.19 0 0 0 0.222-0.018M20.141 6.594 19.868 6.172l-0.012-0.02c-0.049-0.1-0.456-0.924-0.797-1.243-0.255-0.241-0.328-0.172-0.348-0.118a0.2 0.2 0 0 1-0.056 0.075l-1.352 1.092A0.2 0.2 0 0 1 17.186 6h-0.7a0.2 0.2 0 0 0-0.133 0.055l-0.562 0.562a0.19 0.19 0 0 0-0.04 0.205q0.012 0.035 0.04 0.06l0.562 0.563A0.2 0.2 0 0 0 16.486 7.5h3.523a0.19 0.19 0 0 0 0.188-0.195l-0.026-0.617a0.2 0.2 0 0 0-0.03-0.094" />
            <path d="M12 3.375a8.625 8.625 0 1 1-6.098 2.527A8.57 8.57 0 0 1 12 3.375M12 1.5C6.202 1.5 1.5 6.202 1.5 12S6.202 22.5 12 22.5 22.5 17.798 22.5 12 17.798 1.5 12 1.5" />
        </symbol>
        <symbol id="cube" viewBox="0 0 24 24" fill="none">
            <path stroke-width="2" stroke="currentColor" stroke-linecap="round" stroke-linejoin="round" d="M12 22V12M12 12l8.73-5.04M12 12 3.27 6.96M21 16.008V7.99a1.98 1.98 0 0 0-1-1.717l-7-4.008a2.02 2.02 0 0 0-2 0L4 6.273c-0.619 0.355-1 1.01-1 1.718v8.018c0 0.709 0.381 1.363 1 1.717l7 4.008a2.02 2.02 0 0 0 2 0l7-4.008c0.619-0.355 1-1.01 1-1.718" />
        </symbol>
        <symbol id="code" viewBox="0 0 24 24" fill="none">
            <path fill="currentColor" d="M14.487 3.143a1 1 0 0 1 0.692 1.233l-4.43 15.788a1.002 1.002 0 0 1-1.581 0.516 1 1 0 0 1-0.345-1.056l4.43-15.788a1 1 0 0 1 1.234-0.693M7.207 7.05a1 1 0 0 1 0 1.414L3.674 12l3.535 3.535a1 1 0 1 1-1.414 1.415L1.55 12.707a1 1 0 0 1 0-1.414L5.794 7.05a1 1 0 0 1 1.414 0M16.795 8.464a1 1 0 1 1 1.414-1.414l4.243 4.243a1 1 0 0 1 0 1.414l-4.243 4.243a1 1 0 1 1-1.414-1.415L20.329 12z" />
        </symbol>
        <symbol id="arrow-up" viewBox="0 0 24 24" fill="none">
            <path fill="currentColor" d="M16.172 13H4v-2h12.172l-5.364-5.364 1.414-1.414L20 12l-7.778 7.778-1.414-1.414z" />
        </symbol>
        <symbol id="ai" viewBox="0 0 24 24" fill="none">
            <path fill="currentColor" d="M9.106 5.448c0.598-1.75 3.016-1.803 3.725-0.159l0.06 0.16 0.807 2.36a4 4 0 0 0 2.276 2.411l0.217 0.081 2.36 0.806c1.75 0.598 1.803 3.016 0.16 3.725l-0.16 0.06-2.36 0.807a4 4 0 0 0-2.412 2.276l-0.08 0.216-0.807 2.361c-0.598 1.75-3.016 1.803-3.724 0.16l-0.062-0.16-0.806-2.36a4 4 0 0 0-2.276-2.412l-0.216-0.081-2.36-0.806c-1.75-0.598-1.804-3.016-0.16-3.724l0.16-0.062 2.36-0.806A4 4 0 0 0 8.22 8.025l0.081-0.216zM11 6.094l-0.806 2.36a6 6 0 0 1-3.49 3.649l-0.25 0.091L4.094 13l2.36 0.806a6 6 0 0 1 3.65 3.49l0.09 0.25 0.806 2.36 0.806-2.36a6 6 0 0 1 3.49-3.649l0.25-0.09 2.36-0.807-2.36-0.806a6 6 0 0 1-3.649-3.49l-0.09-0.25zM19 2a1 1 0 0 1 0.898 0.56l0.048 0.117 0.35 1.026 1.027 0.35a1 1 0 0 1 0.118 1.845l-0.118 0.048-1.026 0.35-0.35 1.027a1 1 0 0 1-1.845 0.117l-0.048-0.117-0.35-1.026-1.027-0.35a1 1 0 0 1-0.118-1.845l0.118-0.048 1.026-0.35 0.35-1.027A1 1 0 0 1 19 2" />
        </symbol>
    </defs>
</svg>